# xmcd
#
# Track frame offsets: 
#        150
#        14326
#        25373
#        38232
#        50761
#        61602
#        74468
#        85020
#        95727
#        106448
#        115796
#        127484
#        139971
#        152401
#        165185
#        173524
#        185617
#        195164
#        207880
#
# Disc length: 2937 seconds
#
# Revision: 3
# Processed by: cddbd v1.5.2PL0 Copyright (c) Steve Scherf et al.
# Submitted via: ExactAudioCopy v1.0b1
#
DISCID=000b7713
DTITLE=Various Artist - Stoned To The Bone (Zoo Mag.)
DYEAR=1997
DGENRE=Blues
TTITLE0=Muddy Waters - Rolling Stone
TTITLE1=Howlin' Wolf - The Red Rooster
TTITLE2=Muddy Waters - I Just Want To Make Love to You
TTITLE3=Bo Diddley - I'm A Man
TTITLE4=Muddy Waters - Look What You've Done
TTITLE5=Tommy Tucker - High Heel Sneakers
TTITLE6=Dale Hawkins - Suzie Q
TTITLE7=Bo Diddley - Mona
TTITLE8=Buddy Holy and The Crickets - Not Fade Away
TTITLE9=Bo Diddley - Crackin' Up
TTITLE10=Muddy Waters - I Just Want to Be Loved
TTITLE11=Howlin' Wolf - Little Baby
TTITLE12=Muddy Waters - I Can't Be Satisfied
TTITLE13=Hank Snow - I'm Movin' On
TTITLE14=Chuck Berry - Come On
TTITLE15=Chuck Berry - 'Round And 'Round
TTITLE16=Chuck Berry - Bye Bye Johnny
TTITLE17=Chuck Berry - Carol
TTITLE18=Chuck Berry - You Can't Catch Me
EXTD=
EXTT0=
EXTT1=
EXTT2=
EXTT3=
EXTT4=
EXTT5=
EXTT6=
EXTT7=
EXTT8=
EXTT9=
EXTT10=
EXTT11=
EXTT12=
EXTT13=
EXTT14=
EXTT15=
EXTT16=
EXTT17=
EXTT18=
PLAYORDER=
